# Blender v2.76 (sub 0) OBJ File: ''
# www.blender.org
o Sphere
v -1.000000 0.000000 0.000000
v -0.707107 -0.000000 -0.707107
v -0.500000 -0.707107 -0.500000
v -0.707107 0.707107 -0.000000
v -0.500000 0.707107 -0.500000
v 0.000000 -0.000000 -1.000000
v 0.000000 -0.707107 -0.707107
v 0.000000 0.707107 -0.707107
v 0.707107 -0.000000 -0.707107
v 0.500000 0.707107 -0.500000
v 1.000000 0.000000 0.000000
v 0.707107 -0.707107 0.000000
v 0.707107 0.707107 -0.000000
v 0.707107 0.000000 0.707107
v 0.500000 -0.707107 0.500000
v 0.500000 0.707107 0.500000
v 0.000000 0.707107 0.707107
v 0.000000 0.000000 1.000000
v 0.000000 -0.707107 0.707107
v -0.500000 0.707107 0.500000
v -0.707107 0.000000 0.707107
v -0.500000 -0.707107 0.500000
v 0.000000 1.000000 -0.000000
v 0.000000 -1.000000 0.000000
v -0.707107 -0.707107 0.000000
v 0.500000 -0.707107 -0.500000
vt 0.500000 0.500000
vt 0.853553 0.500000
vt 0.750000 0.146447
vt 0.500000 0.853553
vt 0.750000 0.853553
vt 0.146447 0.500000
vt 0.500000 0.146447
vt 0.250000 0.853553
vt 0.250000 0.146447
vt 0.250000 0.750000
vt 0.750000 0.750000
vt 0.750000 0.250000
vt 0.250000 0.250000
vn -0.862900 -0.357400 -0.357400
vn -0.862900 0.357400 -0.357400
vn -0.357400 -0.357400 -0.862900
vn -0.357400 0.357400 -0.862900
vn 0.357400 -0.357400 -0.862900
vn 0.357400 0.357400 -0.862900
vn 0.862900 -0.357400 -0.357400
vn 0.862900 0.357400 -0.357400
vn 0.862900 -0.357400 0.357400
vn 0.862900 0.357400 0.357400
vn 0.357400 0.357400 0.862900
vn 0.357400 -0.357400 0.862900
vn -0.357400 0.357400 0.862900
vn -0.357400 -0.357400 0.862900
vn -0.378000 0.912500 -0.156600
vn -0.378000 -0.912500 -0.156600
vn -0.156600 0.912500 -0.378000
vn -0.156600 -0.912500 -0.378000
vn 0.156600 0.912500 -0.378000
vn 0.156600 -0.912500 -0.378000
vn 0.378000 0.912500 -0.156600
vn 0.378000 -0.912500 -0.156600
vn 0.378000 0.912500 0.156600
vn 0.378000 -0.912500 0.156600
vn 0.156600 0.912500 0.378000
vn 0.156600 -0.912500 0.378000
vn -0.156600 -0.912500 0.378000
vn -0.156600 0.912500 0.378000
vn -0.378000 -0.912500 0.156600
vn -0.862900 0.357400 0.357400
vn -0.862900 -0.357400 0.357400
vn -0.378000 0.912500 0.156600
s 1
f 1/1/1 2/2/1 3/3/1
f 4/4/2 5/5/2 2/2/2
f 2/6/3 6/1/3 7/7/3
f 5/8/4 8/4/4 6/1/4
f 7/7/5 6/1/5 9/2/5
f 8/4/6 10/5/6 9/2/6
f 9/2/7 11/1/7 12/7/7
f 10/5/8 13/4/8 11/1/8
f 11/1/9 14/6/9 15/9/9
f 13/4/10 16/8/10 14/6/10
f 16/5/11 17/4/11 18/1/11
f 14/2/12 18/1/12 19/7/12
f 17/4/13 20/8/13 21/6/13
f 18/1/14 21/6/14 22/9/14
f 4/6/15 23/1/15 5/10/15
f 24/1/16 25/6/16 3/10/16
f 5/10/17 23/1/17 8/4/17
f 24/1/18 3/10/18 7/4/18
f 8/4/19 23/1/19 10/11/19
f 24/1/20 7/4/20 26/11/20
f 10/11/21 23/1/21 13/2/21
f 24/1/22 26/11/22 12/2/22
f 13/2/23 23/1/23 16/12/23
f 24/1/24 12/2/24 15/12/24
f 16/12/25 23/1/25 17/7/25
f 24/1/26 15/12/26 19/7/26
f 24/1/27 19/7/27 22/13/27
f 17/7/28 23/1/28 20/13/28
f 24/1/29 22/13/29 25/6/29
f 21/6/30 20/8/30 4/4/30
f 21/6/31 1/1/31 25/7/31
f 20/13/32 23/1/32 4/6/32
f 25/7/1 1/1/1 3/3/1
f 1/1/2 4/4/2 2/2/2
f 3/9/3 2/6/3 7/7/3
f 2/6/4 5/8/4 6/1/4
f 26/3/5 7/7/5 9/2/5
f 6/1/6 8/4/6 9/2/6
f 26/3/7 9/2/7 12/7/7
f 9/2/8 10/5/8 11/1/8
f 12/7/9 11/1/9 15/9/9
f 11/1/10 13/4/10 14/6/10
f 14/2/11 16/5/11 18/1/11
f 15/3/12 14/2/12 19/7/12
f 18/1/13 17/4/13 21/6/13
f 19/7/14 18/1/14 22/9/14
f 1/1/30 21/6/30 4/4/30
f 22/9/31 21/6/31 25/7/31
