# Blender v2.76 (sub 0) OBJ File: ''
# www.blender.org
o Plane
v 1.000000 0.000000 -1.000000
v -1.000000 0.000000 -1.000000
v 1.000000 0.000000 1.000000
v -1.000000 0.000000 1.000000
v 3.000000 0.000000 -1.000000
v 3.000000 0.000000 1.000000
v 1.000000 2.000000 1.000000
v 3.000000 2.000000 1.000000
v -3.000000 0.000000 -1.000000
v -3.000000 0.000000 1.000000
v -1.000000 0.000000 -3.000000
v -3.000000 0.000000 -3.000000
v 1.000000 -2.000000 -1.000000
v 3.000000 -2.000000 -1.000000
v -4.000000 1.000000 0.000000
v -3.000000 1.000000 -2.000000
v -4.000000 2.000000 -1.000000
v -3.000000 1.000000 2.000000
v -4.000000 2.000000 1.000000
vt 0.000221 0.999336
vt 0.000221 0.683367
vt 0.316191 0.683367
vt 0.633045 0.683809
vt 0.949015 0.683809
vt 0.949015 0.999779
vt 0.618233 0.696535
vt 0.303465 0.668996
vt 0.331004 0.354229
vt 0.000221 0.367397
vt 0.316191 0.367397
vt 0.632603 0.999779
vt 0.316633 0.999779
vt 0.316633 0.683809
vt 0.335408 0.354995
vt 0.651378 0.354995
vt 0.651378 0.670965
vt 0.697471 0.287384
vt 0.474684 0.577220
vt 0.252752 0.287383
vt 0.250651 0.775004
vt 0.013027 0.481402
vt 0.944175 0.493294
vt 0.687072 0.786682
vt 0.316191 0.999336
vt 0.633045 0.999779
vt 0.645771 0.381767
vt 0.632603 0.683809
vt 0.335408 0.670965
vn 0.000000 -1.000000 0.000000
vn 0.000000 0.000000 1.000000
vn -0.707100 -0.707100 0.000000
vn -0.816500 -0.408200 -0.408200
vn -0.816500 -0.408200 0.408200
vn -1.000000 0.000000 0.000000
s off
f 3/1/1 4/2/1 2/3/1
f 5/4/1 6/5/1 3/6/1
f 8/7/2 7/8/2 3/9/2
f 10/10/1 9/11/1 2/3/1
f 12/12/1 11/13/1 2/14/1
f 13/15/2 14/16/2 5/17/2
f 10/18/3 15/19/3 9/20/3
f 17/21/4 16/22/4 9/20/4
f 10/18/5 18/23/5 19/24/5
f 15/19/6 19/24/6 17/21/6
f 1/25/1 3/1/1 2/3/1
f 1/26/1 5/4/1 3/6/1
f 6/27/2 8/7/2 3/9/2
f 4/2/1 10/10/1 2/3/1
f 9/28/1 12/12/1 2/14/1
f 1/29/2 13/15/2 5/17/2
f 15/19/4 17/21/4 9/20/4
f 15/19/5 10/18/5 19/24/5
